<mxfile host="app.diagrams.net" modified="2024-06-30T07:22:45.890Z" agent="Mozilla/5.0 (Windows NT 10.0; Win64; x64) AppleWebKit/537.36 (KHTML, like Gecko) Chrome/126.0.0.0 Safari/537.36" etag="s0fso_E_cq0iADhzNmW5" version="24.6.4" type="device">
  <diagram name="Page-1" id="nEYRl9EN5Ta154UCU8Y4">
    <mxGraphModel dx="1120" dy="434" grid="1" gridSize="10" guides="1" tooltips="1" connect="1" arrows="1" fold="1" page="1" pageScale="1" pageWidth="827" pageHeight="1169" math="0" shadow="0">
      <root>
        <mxCell id="0" />
        <mxCell id="1" parent="0" />
        <mxCell id="xEkPDllLToV-F4PJChj9-42" style="edgeStyle=orthogonalEdgeStyle;rounded=0;orthogonalLoop=1;jettySize=auto;html=1;entryX=0;entryY=0.5;entryDx=0;entryDy=0;" edge="1" parent="1" source="xEkPDllLToV-F4PJChj9-1" target="xEkPDllLToV-F4PJChj9-4">
          <mxGeometry relative="1" as="geometry">
            <mxPoint x="360" y="400" as="targetPoint" />
            <Array as="points">
              <mxPoint x="125" y="400" />
              <mxPoint x="361" y="400" />
              <mxPoint x="361" y="395" />
            </Array>
          </mxGeometry>
        </mxCell>
        <mxCell id="xEkPDllLToV-F4PJChj9-46" value="Search Rooms&amp;nbsp;" style="edgeLabel;html=1;align=center;verticalAlign=middle;resizable=0;points=[];" vertex="1" connectable="0" parent="xEkPDllLToV-F4PJChj9-42">
          <mxGeometry x="0.25" y="2" relative="1" as="geometry">
            <mxPoint as="offset" />
          </mxGeometry>
        </mxCell>
        <mxCell id="xEkPDllLToV-F4PJChj9-1" value="&lt;font style=&quot;font-size: 14px;&quot;&gt;User&amp;nbsp;&lt;/font&gt;" style="rounded=0;whiteSpace=wrap;html=1;" vertex="1" parent="1">
          <mxGeometry x="40" y="50" width="170" height="80" as="geometry" />
        </mxCell>
        <mxCell id="xEkPDllLToV-F4PJChj9-2" value="View Hotels" style="ellipse;whiteSpace=wrap;html=1;aspect=fixed;" vertex="1" parent="1">
          <mxGeometry x="370" y="25" width="110" height="110" as="geometry" />
        </mxCell>
        <mxCell id="xEkPDllLToV-F4PJChj9-3" value="Search Hotels" style="ellipse;whiteSpace=wrap;html=1;aspect=fixed;" vertex="1" parent="1">
          <mxGeometry x="370" y="170" width="110" height="110" as="geometry" />
        </mxCell>
        <mxCell id="xEkPDllLToV-F4PJChj9-4" value="Search Rooms&amp;nbsp;" style="ellipse;whiteSpace=wrap;html=1;aspect=fixed;" vertex="1" parent="1">
          <mxGeometry x="370" y="340" width="110" height="110" as="geometry" />
        </mxCell>
        <mxCell id="xEkPDllLToV-F4PJChj9-5" value="Books Rooms" style="ellipse;whiteSpace=wrap;html=1;aspect=fixed;" vertex="1" parent="1">
          <mxGeometry x="370" y="530" width="110" height="110" as="geometry" />
        </mxCell>
        <mxCell id="xEkPDllLToV-F4PJChj9-6" value="" style="endArrow=none;html=1;rounded=0;exitX=0.018;exitY=0.327;exitDx=0;exitDy=0;exitPerimeter=0;entryX=0.991;entryY=0.327;entryDx=0;entryDy=0;entryPerimeter=0;" edge="1" parent="1" source="xEkPDllLToV-F4PJChj9-2" target="xEkPDllLToV-F4PJChj9-2">
          <mxGeometry width="50" height="50" relative="1" as="geometry">
            <mxPoint x="390" y="110" as="sourcePoint" />
            <mxPoint x="440" y="60" as="targetPoint" />
          </mxGeometry>
        </mxCell>
        <mxCell id="xEkPDllLToV-F4PJChj9-7" value="" style="endArrow=none;html=1;rounded=0;exitX=0.018;exitY=0.327;exitDx=0;exitDy=0;exitPerimeter=0;entryX=0.991;entryY=0.327;entryDx=0;entryDy=0;entryPerimeter=0;" edge="1" parent="1">
          <mxGeometry width="50" height="50" relative="1" as="geometry">
            <mxPoint x="373" y="210" as="sourcePoint" />
            <mxPoint x="480" y="210" as="targetPoint" />
          </mxGeometry>
        </mxCell>
        <mxCell id="xEkPDllLToV-F4PJChj9-8" value="" style="endArrow=none;html=1;rounded=0;exitX=0.018;exitY=0.327;exitDx=0;exitDy=0;exitPerimeter=0;entryX=0.991;entryY=0.327;entryDx=0;entryDy=0;entryPerimeter=0;" edge="1" parent="1">
          <mxGeometry width="50" height="50" relative="1" as="geometry">
            <mxPoint x="373" y="380" as="sourcePoint" />
            <mxPoint x="480" y="380" as="targetPoint" />
          </mxGeometry>
        </mxCell>
        <mxCell id="xEkPDllLToV-F4PJChj9-9" value="" style="endArrow=none;html=1;rounded=0;exitX=0.018;exitY=0.327;exitDx=0;exitDy=0;exitPerimeter=0;entryX=0.991;entryY=0.327;entryDx=0;entryDy=0;entryPerimeter=0;" edge="1" parent="1">
          <mxGeometry width="50" height="50" relative="1" as="geometry">
            <mxPoint x="371.5" y="570" as="sourcePoint" />
            <mxPoint x="478.5" y="570" as="targetPoint" />
          </mxGeometry>
        </mxCell>
        <mxCell id="xEkPDllLToV-F4PJChj9-12" style="edgeStyle=orthogonalEdgeStyle;rounded=0;orthogonalLoop=1;jettySize=auto;html=1;entryX=1;entryY=0.5;entryDx=0;entryDy=0;" edge="1" parent="1" source="xEkPDllLToV-F4PJChj9-10" target="xEkPDllLToV-F4PJChj9-3">
          <mxGeometry relative="1" as="geometry" />
        </mxCell>
        <mxCell id="xEkPDllLToV-F4PJChj9-14" style="edgeStyle=orthogonalEdgeStyle;rounded=0;orthogonalLoop=1;jettySize=auto;html=1;exitX=0.75;exitY=1;exitDx=0;exitDy=0;entryX=1;entryY=0.5;entryDx=0;entryDy=0;" edge="1" parent="1" source="xEkPDllLToV-F4PJChj9-10" target="xEkPDllLToV-F4PJChj9-5">
          <mxGeometry relative="1" as="geometry">
            <mxPoint x="500" y="590" as="targetPoint" />
            <Array as="points">
              <mxPoint x="768" y="590" />
              <mxPoint x="490" y="590" />
              <mxPoint x="490" y="585" />
            </Array>
          </mxGeometry>
        </mxCell>
        <mxCell id="xEkPDllLToV-F4PJChj9-10" value="&lt;font style=&quot;font-size: 14px;&quot;&gt;Rooms&lt;/font&gt;" style="rounded=0;whiteSpace=wrap;html=1;" vertex="1" parent="1">
          <mxGeometry x="650" y="190" width="170" height="80" as="geometry" />
        </mxCell>
        <mxCell id="xEkPDllLToV-F4PJChj9-13" style="edgeStyle=orthogonalEdgeStyle;rounded=0;orthogonalLoop=1;jettySize=auto;html=1;exitX=0.5;exitY=1;exitDx=0;exitDy=0;entryX=1;entryY=0.682;entryDx=0;entryDy=0;entryPerimeter=0;" edge="1" parent="1" source="xEkPDllLToV-F4PJChj9-10" target="xEkPDllLToV-F4PJChj9-4">
          <mxGeometry relative="1" as="geometry" />
        </mxCell>
        <mxCell id="xEkPDllLToV-F4PJChj9-47" value="Rooms Description" style="edgeLabel;html=1;align=center;verticalAlign=middle;resizable=0;points=[];" vertex="1" connectable="0" parent="xEkPDllLToV-F4PJChj9-13">
          <mxGeometry x="0.475" y="-1" relative="1" as="geometry">
            <mxPoint as="offset" />
          </mxGeometry>
        </mxCell>
        <mxCell id="xEkPDllLToV-F4PJChj9-16" value="" style="endArrow=none;html=1;rounded=0;" edge="1" parent="1">
          <mxGeometry width="50" height="50" relative="1" as="geometry">
            <mxPoint x="520" y="140" as="sourcePoint" />
            <mxPoint x="640" y="140" as="targetPoint" />
          </mxGeometry>
        </mxCell>
        <mxCell id="xEkPDllLToV-F4PJChj9-17" value="" style="endArrow=none;html=1;rounded=0;" edge="1" parent="1">
          <mxGeometry width="50" height="50" relative="1" as="geometry">
            <mxPoint x="520" y="160" as="sourcePoint" />
            <mxPoint x="620" y="160" as="targetPoint" />
          </mxGeometry>
        </mxCell>
        <mxCell id="xEkPDllLToV-F4PJChj9-18" value="&lt;font style=&quot;font-size: 14px;&quot;&gt;Hotel DB&lt;/font&gt;" style="text;html=1;align=center;verticalAlign=middle;resizable=0;points=[];autosize=1;strokeColor=none;fillColor=none;" vertex="1" parent="1">
          <mxGeometry x="520" y="138" width="80" height="30" as="geometry" />
        </mxCell>
        <mxCell id="xEkPDllLToV-F4PJChj9-21" value="" style="endArrow=none;html=1;rounded=0;" edge="1" parent="1">
          <mxGeometry width="50" height="50" relative="1" as="geometry">
            <mxPoint x="540" y="160" as="sourcePoint" />
            <mxPoint x="640" y="160" as="targetPoint" />
          </mxGeometry>
        </mxCell>
        <mxCell id="xEkPDllLToV-F4PJChj9-22" value="" style="endArrow=none;html=1;rounded=0;" edge="1" parent="1">
          <mxGeometry width="50" height="50" relative="1" as="geometry">
            <mxPoint x="520" y="480" as="sourcePoint" />
            <mxPoint x="650" y="480" as="targetPoint" />
          </mxGeometry>
        </mxCell>
        <mxCell id="xEkPDllLToV-F4PJChj9-23" value="" style="endArrow=none;html=1;rounded=0;" edge="1" parent="1">
          <mxGeometry width="50" height="50" relative="1" as="geometry">
            <mxPoint x="520" y="520" as="sourcePoint" />
            <mxPoint x="650" y="520" as="targetPoint" />
          </mxGeometry>
        </mxCell>
        <mxCell id="xEkPDllLToV-F4PJChj9-24" value="" style="endArrow=none;html=1;rounded=0;" edge="1" parent="1">
          <mxGeometry width="50" height="50" relative="1" as="geometry">
            <mxPoint x="525" y="640" as="sourcePoint" />
            <mxPoint x="680" y="640" as="targetPoint" />
          </mxGeometry>
        </mxCell>
        <mxCell id="xEkPDllLToV-F4PJChj9-25" value="" style="endArrow=none;html=1;rounded=0;" edge="1" parent="1">
          <mxGeometry width="50" height="50" relative="1" as="geometry">
            <mxPoint x="525" y="680" as="sourcePoint" />
            <mxPoint x="680" y="680" as="targetPoint" />
          </mxGeometry>
        </mxCell>
        <mxCell id="xEkPDllLToV-F4PJChj9-26" value="" style="endArrow=classic;startArrow=classic;html=1;rounded=0;exitX=0.543;exitY=0;exitDx=0;exitDy=0;exitPerimeter=0;" edge="1" parent="1" source="xEkPDllLToV-F4PJChj9-18" target="xEkPDllLToV-F4PJChj9-2">
          <mxGeometry width="50" height="50" relative="1" as="geometry">
            <mxPoint x="390" y="310" as="sourcePoint" />
            <mxPoint x="440" y="260" as="targetPoint" />
          </mxGeometry>
        </mxCell>
        <mxCell id="xEkPDllLToV-F4PJChj9-28" value="" style="endArrow=classic;startArrow=classic;html=1;rounded=0;exitX=0.543;exitY=0;exitDx=0;exitDy=0;exitPerimeter=0;" edge="1" parent="1">
          <mxGeometry width="50" height="50" relative="1" as="geometry">
            <mxPoint x="547" y="477" as="sourcePoint" />
            <mxPoint x="460" y="440" as="targetPoint" />
          </mxGeometry>
        </mxCell>
        <mxCell id="xEkPDllLToV-F4PJChj9-29" value="" style="endArrow=classic;startArrow=classic;html=1;rounded=0;exitX=0.543;exitY=0;exitDx=0;exitDy=0;exitPerimeter=0;" edge="1" parent="1">
          <mxGeometry width="50" height="50" relative="1" as="geometry">
            <mxPoint x="567" y="640" as="sourcePoint" />
            <mxPoint x="480" y="603" as="targetPoint" />
          </mxGeometry>
        </mxCell>
        <mxCell id="xEkPDllLToV-F4PJChj9-32" value="&lt;font style=&quot;font-size: 14px;&quot;&gt;Rooms Database&lt;/font&gt;" style="text;html=1;align=center;verticalAlign=middle;resizable=0;points=[];autosize=1;strokeColor=none;fillColor=none;" vertex="1" parent="1">
          <mxGeometry x="505" y="490" width="130" height="30" as="geometry" />
        </mxCell>
        <mxCell id="xEkPDllLToV-F4PJChj9-35" value="" style="endArrow=classic;startArrow=classic;html=1;rounded=0;entryX=1.018;entryY=0.336;entryDx=0;entryDy=0;entryPerimeter=0;" edge="1" parent="1" target="xEkPDllLToV-F4PJChj9-3">
          <mxGeometry width="50" height="50" relative="1" as="geometry">
            <mxPoint x="560" y="160" as="sourcePoint" />
            <mxPoint x="486" y="111" as="targetPoint" />
          </mxGeometry>
        </mxCell>
        <mxCell id="xEkPDllLToV-F4PJChj9-36" value="&lt;font style=&quot;font-size: 14px;&quot;&gt;Booking Database&lt;/font&gt;" style="text;html=1;align=center;verticalAlign=middle;resizable=0;points=[];autosize=1;strokeColor=none;fillColor=none;" vertex="1" parent="1">
          <mxGeometry x="520" y="648" width="140" height="30" as="geometry" />
        </mxCell>
        <mxCell id="xEkPDllLToV-F4PJChj9-37" style="edgeStyle=orthogonalEdgeStyle;rounded=0;orthogonalLoop=1;jettySize=auto;html=1;entryX=1.009;entryY=0.273;entryDx=0;entryDy=0;entryPerimeter=0;" edge="1" parent="1" source="xEkPDllLToV-F4PJChj9-10" target="xEkPDllLToV-F4PJChj9-2">
          <mxGeometry relative="1" as="geometry">
            <Array as="points">
              <mxPoint x="735" y="55" />
            </Array>
          </mxGeometry>
        </mxCell>
        <mxCell id="xEkPDllLToV-F4PJChj9-38" value="Hotel&amp;nbsp; Descriptipn" style="edgeLabel;html=1;align=center;verticalAlign=middle;resizable=0;points=[];" vertex="1" connectable="0" parent="xEkPDllLToV-F4PJChj9-37">
          <mxGeometry x="0.2545" y="-1" relative="1" as="geometry">
            <mxPoint as="offset" />
          </mxGeometry>
        </mxCell>
        <mxCell id="xEkPDllLToV-F4PJChj9-39" style="edgeStyle=orthogonalEdgeStyle;rounded=0;orthogonalLoop=1;jettySize=auto;html=1;entryX=-0.009;entryY=0.409;entryDx=0;entryDy=0;entryPerimeter=0;" edge="1" parent="1" source="xEkPDllLToV-F4PJChj9-1" target="xEkPDllLToV-F4PJChj9-2">
          <mxGeometry relative="1" as="geometry" />
        </mxCell>
        <mxCell id="xEkPDllLToV-F4PJChj9-40" style="edgeStyle=orthogonalEdgeStyle;rounded=0;orthogonalLoop=1;jettySize=auto;html=1;exitX=0.829;exitY=1.025;exitDx=0;exitDy=0;exitPerimeter=0;" edge="1" parent="1" source="xEkPDllLToV-F4PJChj9-1" target="xEkPDllLToV-F4PJChj9-3">
          <mxGeometry relative="1" as="geometry">
            <mxPoint x="180" y="130" as="sourcePoint" />
            <mxPoint x="340" y="240" as="targetPoint" />
            <Array as="points">
              <mxPoint x="181" y="130" />
              <mxPoint x="180" y="225" />
            </Array>
          </mxGeometry>
        </mxCell>
        <mxCell id="xEkPDllLToV-F4PJChj9-45" value="Search the Hotel&amp;nbsp;" style="edgeLabel;html=1;align=center;verticalAlign=middle;resizable=0;points=[];" vertex="1" connectable="0" parent="xEkPDllLToV-F4PJChj9-40">
          <mxGeometry x="-0.0941" y="2" relative="1" as="geometry">
            <mxPoint as="offset" />
          </mxGeometry>
        </mxCell>
        <mxCell id="xEkPDllLToV-F4PJChj9-43" value="" style="endArrow=classic;html=1;rounded=0;exitX=0.118;exitY=1;exitDx=0;exitDy=0;exitPerimeter=0;edgeStyle=orthogonalEdgeStyle;entryX=0;entryY=0.5;entryDx=0;entryDy=0;entryPerimeter=0;" edge="1" parent="1" source="xEkPDllLToV-F4PJChj9-1" target="xEkPDllLToV-F4PJChj9-5">
          <mxGeometry width="50" height="50" relative="1" as="geometry">
            <mxPoint x="390" y="330" as="sourcePoint" />
            <mxPoint x="370" y="590" as="targetPoint" />
            <Array as="points">
              <mxPoint x="60" y="585" />
              <mxPoint x="360" y="585" />
              <mxPoint x="360" y="580" />
              <mxPoint x="350" y="580" />
              <mxPoint x="350" y="585" />
            </Array>
          </mxGeometry>
        </mxCell>
        <mxCell id="xEkPDllLToV-F4PJChj9-44" value="Books the Rooms" style="edgeLabel;html=1;align=center;verticalAlign=middle;resizable=0;points=[];" vertex="1" connectable="0" parent="xEkPDllLToV-F4PJChj9-43">
          <mxGeometry x="0.3408" y="4" relative="1" as="geometry">
            <mxPoint as="offset" />
          </mxGeometry>
        </mxCell>
      </root>
    </mxGraphModel>
  </diagram>
</mxfile>
